<svg xmlns="http://www.w3.org/2000/svg" width="220" height="131.741" xmlns:v="https://vecta.io/nano"><defs><linearGradient id="A"><stop stop-color="#8f5e25" offset="0"/><stop stop-color="#fbf4a1" offset=".5"/><stop stop-color="#8f5e25" offset="1"/></linearGradient></defs><path d="M95 8.539L53 22.986V73.27c-1.832-.864-4.27-1.001-6.694-.193-4.192 1.397-6.74 5.078-5.692 8.222s5.295 4.559 9.487 3.162c3.742-1.247 6.166-4.314 5.899-7.195V32l36-12.397v32.681c-1.835-.876-4.286-1.019-6.722-.207-4.192 1.397-6.74 5.078-5.692 8.222s5.295 4.559 9.487 3.162c3.525-1.175 5.878-3.965 5.918-6.692H95V8.539zM19 9v43c-1.869-.892-4.481-.971-6.963-.143-4.269 1.423-6.865 5.172-5.798 8.374s5.393 4.644 9.663 3.221c3.59-1.197 6.047-4.038 6.087-6.816H22V23s12.926 3.741 17 18c0-16.296-14-19-20-32zm18.423 70H2v2h35.476a7.75 7.75 0 0 1-.053-2zM98 81v-2H58.9a8.66 8.66 0 0 1-.591 2H98zM5.078 64H2v2h5.87c-1.081-.501-2.028-1.176-2.792-2zM98 66v-2h-3.769c-.978.804-2.112 1.487-3.377 2H98zm-19.599-2H59v2h22.155a8.74 8.74 0 0 1-2.754-2zM21.09 64a13.4 13.4 0 0 1-3.433 2H50v-2H21.09zM25 49h25v2H25zm-13.875 0H2v2h5.25c1.106-.825 2.395-1.508 3.839-1.99.012-.004.024-.006.036-.01zM59 51h21.822a13.5 13.5 0 0 1 3.507-1.769l.796-.231H59v2zM32.25 34H25v2h8.595c-.427-.712-.877-1.378-1.345-2zM2 34h14v2H2zm57 2h30v-2H59.406l-.406.14zm-17.449 0H50v-2h-8.898l.449 2zm-8.817-15h18.028a2.99 2.99 0 0 1 1.263-.851L55.366 19h-24.68l2.048 2zM2 19h14v2H2z" transform="matrix(.941663 0 0 .941663 63.116673 -8.040863)" fill="#fce38f"/><path d="" transform="matrix(1.204259 0 0 1.204259 -3.853629 83.522026)" fill="url(#A)"/></svg>